<?xml version="1.0" encoding="utf-8"?>
<!-- Generator: Adobe Illustrator 16.0.3, SVG Export Plug-In . SVG Version: 6.00 Build 0)  -->
<!DOCTYPE svg PUBLIC "-//W3C//DTD SVG 1.1//EN" "http://www.w3.org/Graphics/SVG/1.1/DTD/svg11.dtd">
<svg version="1.1" id="Layer_1" xmlns="http://www.w3.org/2000/svg" xmlns:xlink="http://www.w3.org/1999/xlink" x="0px" y="0px"
	 width="100px" height="110px" viewBox="0 0 100 110" enable-background="new 0 0 100 110" xml:space="preserve">
<g>
	<g>
		<polygon fill="#00000F" points="85,90 55,110 25,100 0,55.001 15,20.004 80,0.003 100,30.003 		"/>
		<polygon opacity="0.12" fill="#FFFFFF" points="25,100 55,110 85,90 		"/>
		<polygon opacity="0.12" fill="#FFFFFF" points="15,20.004 100,30.003 80,0.003 		"/>
		<polygon opacity="0.12" fill="#FFFFFF" points="15,20.004 25,100 0,55.001 		"/>
		<polygon opacity="0.12" fill="#FFFFFF" points="55,110 85,90 100,30.003 		"/>
		<polygon opacity="0.12" fill="#FFFFFF" points="0,55.001 55,110 25,100 		"/>
		<polygon opacity="0.12" fill="#FFFFFF" points="0,55.001 80,0 15,20.004 		"/>
		<polygon opacity="0.12" fill="#FFFFFF" points="100,30.003 85,90 80,0.003 		"/>
	</g>
	<g id="cleaned_up_02_34_">
		<polygon fill="#F0F0FF" points="40,78.75 45,73.75 45,68.75 40,63.75 		"/>
		<polygon fill="#F0F0FF" points="60,33.752 55,38.75 55,43.752 60,48.751 		"/>
		<polygon fill="#F0F0FF" points="65.002,46.252 65.002,58.753 40,33.752 40,46.252 45,51.251 45,46.252 70,71.25 70,41.251 		"/>
		<polygon fill="#F0F0FF" points="55,61.25 55,66.25 30,41.251 30,71.25 35,66.25 35,53.751 60,78.75 60,66.25 		"/>
	</g>
</g>
<g>
	<g>
		<polygon fill="#00000F" points="87,-80 57,-60 27,-70 2,-114.998 17,-149.996 82,-169.997 102,-139.997 		"/>
		<polygon opacity="0.12" fill="#FFFFFF" points="27,-70 57,-60 87,-80 		"/>
		<polygon opacity="0.12" fill="#FFFFFF" points="17,-149.996 102,-139.997 82,-169.997 		"/>
		<polygon opacity="0.12" fill="#FFFFFF" points="17,-149.996 27,-70 2,-114.998 		"/>
		<polygon opacity="0.12" fill="#FFFFFF" points="57,-60 87,-80 102,-139.997 		"/>
		<polygon opacity="0.12" fill="#FFFFFF" points="2,-114.998 57,-60 27,-70 		"/>
		<polygon opacity="0.12" fill="#FFFFFF" points="2,-114.998 82,-170 17,-149.996 		"/>
		<polygon opacity="0.12" fill="#FFFFFF" points="102,-139.997 87,-80 82,-169.997 		"/>
	</g>
	<g id="cleaned_up_02_1_">
		<polygon fill="#F0F0FF" points="42,-91.25 47,-96.25 47,-101.25 42,-106.25 		"/>
		<polygon fill="#F0F0FF" points="62,-136.248 57,-131.25 57,-126.248 62,-121.249 		"/>
		<polygon fill="#F0F0FF" points="67.002,-123.748 67.002,-111.247 42,-136.248 42,-123.748 47,-118.749 47,-123.748 72,-98.75 
			72,-128.749 		"/>
		<polygon fill="#F0F0FF" points="57,-108.75 57,-103.75 32,-128.749 32,-98.75 37,-103.75 37,-116.249 62,-91.25 62,-103.75 		"/>
	</g>
</g>
</svg>
